<svg xmlns="http://www.w3.org/2000/svg" width="900" height="1600" viewBox="0 0 900 1600"><metadata>Asset PHX-ORDINARY-PYA-CORE-001; locally authored deterministic SVG; no external input; 清晨票号旧院、算盘袋与账册封绳; safe zone upper-right</metadata><defs><linearGradient id="sky" x1="0" y1="0" x2="0" y2="1"><stop stop-color="#ddc39c"/><stop offset=".58" stop-color="#9b704d"/><stop offset="1" stop-color="#28211c"/></linearGradient><radialGradient id="light" cx="35%" cy="27%" r="70%"><stop stop-color="#6c6657" stop-opacity=".34"/><stop offset=".48" stop-color="#6c6657" stop-opacity=".08"/><stop offset="1" stop-color="#28211c" stop-opacity="0"/></radialGradient><filter id="grain" x="-10%" y="-10%" width="120%" height="120%"><feTurbulence type="fractalNoise" baseFrequency=".42" numOctaves="2" seed="34"/><feColorMatrix values="1 0 0 0 0 0 1 0 0 0 0 0 1 0 0 0 0 0 .075 0"/></filter></defs><rect width="900" height="1600" fill="url(#sky)"/><rect width="900" height="1600" fill="url(#light)"/><path fill="#ddc39c" d="M0 470h900v1130H0z"/><path fill="#28211c" d="M130 560h220v650H130zM610 460h170v750H610z"/><path fill="#9b704d" d="m0 1350 450-260 450 160v350H0z"/><path fill="#6c6657" d="M190 1120h300v170H190z"/><g fill="#28211c"><circle cx="245" cy="1170" r="25"/><circle cx="315" cy="1170" r="25"/><circle cx="385" cy="1170" r="25"/><circle cx="455" cy="1170" r="25"/></g><rect width="900" height="1600" filter="url(#grain)" opacity=".28"/><path fill="#28211c" opacity=".09" d="M0 0h900v270H0z"/><path fill="#28211c" opacity=".07" d="M0 1460h900v140H0z"/></svg>