<svg xmlns="http://www.w3.org/2000/svg" width="900" height="1600" viewBox="0 0 900 1600"><metadata>Asset PHX-ORDINARY-LYL-CORE-001; locally authored deterministic SVG; no external input; 伊河岸写生板、小龛与工匠凿痕; safe zone upper-right</metadata><defs><linearGradient id="sky" x1="0" y1="0" x2="0" y2="1"><stop stop-color="#d5c0a2"/><stop offset=".58" stop-color="#8c7059"/><stop offset="1" stop-color="#27211d"/></linearGradient><radialGradient id="light" cx="75%" cy="27%" r="70%"><stop stop-color="#5f7770" stop-opacity=".34"/><stop offset=".48" stop-color="#5f7770" stop-opacity=".08"/><stop offset="1" stop-color="#27211d" stop-opacity="0"/></radialGradient><filter id="grain" x="-10%" y="-10%" width="120%" height="120%"><feTurbulence type="fractalNoise" baseFrequency=".42" numOctaves="2" seed="26"/><feColorMatrix values="1 0 0 0 0 0 1 0 0 0 0 0 1 0 0 0 0 0 .075 0"/></filter></defs><rect width="900" height="1600" fill="url(#sky)"/><rect width="900" height="1600" fill="url(#light)"/><path fill="#d5c0a2" d="M0 250h470l110 310-80 1040H0z"/><g fill="#27211d"><ellipse cx="180" cy="630" rx="95" ry="130"/><ellipse cx="350" cy="840" rx="70" ry="100"/></g><path fill="#8c7059" d="M470 850q220-80 430 20v730H450z"/><path fill="#5f7770" d="m550 1050 250 55-70 340-250-55z"/><path stroke="#27211d" stroke-width="10" fill="none" d="m590 1120 130 30-35 180-130-30z"/><rect width="900" height="1600" filter="url(#grain)" opacity=".28"/><path fill="#27211d" opacity=".09" d="M0 0h900v270H0z"/><path fill="#27211d" opacity=".07" d="M0 1460h900v140H0z"/></svg>