<?xml version="1.0" encoding="UTF-8"?>
<svg xmlns="http://www.w3.org/2000/svg" viewBox="0 0 900 1600" width="900" height="1600" role="img" aria-label="神话寻踪 · 月宫遗简 writing original Phoenix visual"><defs><linearGradient id="sky" x1="0" y1="0" x2="0" y2="1"><stop stop-color="#151621"/><stop offset=".55" stop-color="#3A3D50"/><stop offset="1" stop-color="#73786F"/></linearGradient><radialGradient id="focus"><stop stop-color="#E8DFC4" stop-opacity=".5"/><stop offset="1" stop-color="#E8DFC4" stop-opacity="0"/></radialGradient></defs><rect width="900" height="1600" fill="url(#sky)"/><ellipse cx="196" cy="756" rx="390" ry="430" fill="url(#focus)"/><path d="M0 1600V910L240 760l170 80 210-270 280 210v820Z" fill="#3A3D50"/><path d="M90 1520L300 1300l-80-120 210-190-65-120 260-240" fill="none" stroke="#E8DFC4" stroke-width="80" opacity=".5"/><path d="M115 1130V520q70-100 140 0v610" fill="none" stroke="#73786F" stroke-width="22" opacity=".6"/><path d="M270 1130V410q70-100 140 0v610" fill="none" stroke="#73786F" stroke-width="22" opacity=".6"/><path d="M425 1130V520q70-100 140 0v610" fill="none" stroke="#73786F" stroke-width="22" opacity=".6"/><path d="M580 1130V410q70-100 140 0v610" fill="none" stroke="#73786F" stroke-width="22" opacity=".6"/><path d="M735 1130V520q70-100 140 0v610" fill="none" stroke="#73786F" stroke-width="22" opacity=".6"/><g transform="translate(260 914) rotate(14)"><rect x="0" y="0" width="34" height="260" rx="12" fill="#B9AA7C"/><path d="M10 45v155" stroke="#151621" stroke-width="5"/><rect x="42" y="0" width="34" height="260" rx="12" fill="#B9AA7C"/><path d="M52 45v155" stroke="#151621" stroke-width="5"/><rect x="84" y="0" width="34" height="260" rx="12" fill="#B9AA7C"/><path d="M94 45v155" stroke="#151621" stroke-width="5"/><rect x="126" y="0" width="34" height="260" rx="12" fill="#B9AA7C"/><path d="M136 45v155" stroke="#151621" stroke-width="5"/><path d="M0 25h160M0 235h160" stroke="#E8DFC4" stroke-width="9"/></g><ellipse cx="490" cy="350" rx="170" ry="95" fill="#E8DFC4" opacity=".24"/><rect x="130" y="330" width="640" height="330" rx="12" fill="#151621" opacity="0.55"/><path d="M200 420 L700 420" fill="none" stroke="#E8DFC4" stroke-width="7" stroke-linecap="round" opacity="0.5"/><path d="M200 490 L700 490" fill="none" stroke="#E8DFC4" stroke-width="7" stroke-linecap="round" opacity="0.5"/><path d="M200 560 L700 560" fill="none" stroke="#E8DFC4" stroke-width="7" stroke-linecap="round" opacity="0.5"/><rect x="42" y="42" width="816" height="1516" rx="28" fill="none" stroke="#E8DFC4" stroke-width="3" opacity=".16"/></svg>
