<?xml version="1.0" encoding="UTF-8"?>
<svg xmlns="http://www.w3.org/2000/svg" viewBox="0 0 900 1600" width="900" height="1600" role="img" aria-label="传奇夜行 · 长安末班车 story-choice original Phoenix visual"><defs><linearGradient id="sky" x1="0" y1="0" x2="0" y2="1"><stop stop-color="#090D18"/><stop offset=".55" stop-color="#25364C"/><stop offset="1" stop-color="#9A563B"/></linearGradient><radialGradient id="focus"><stop stop-color="#D9E7E5" stop-opacity=".5"/><stop offset="1" stop-color="#D9E7E5" stop-opacity="0"/></radialGradient></defs><rect width="900" height="1600" fill="url(#sky)"/><ellipse cx="188" cy="508" rx="390" ry="430" fill="url(#focus)"/><path d="M0 1120 Q220 960 450 1080 T900 990 V1600H0Z" fill="#25364C"/><g opacity=".8"><rect x="55" y="560" width="150" height="520" rx="8" fill="#090D18"/><path d="M75 1080V720Q130 630 185 720V1080" fill="#9A563B" opacity=".45"/><rect x="280" y="615" width="150" height="520" rx="8" fill="#090D18"/><path d="M300 1080V720Q130 685 410 720V1080" fill="#9A563B" opacity=".45"/><rect x="505" y="560" width="150" height="520" rx="8" fill="#090D18"/><path d="M525 1080V720Q130 630 635 720V1080" fill="#9A563B" opacity=".45"/><rect x="730" y="615" width="150" height="520" rx="8" fill="#090D18"/><path d="M750 1080V720Q130 685 860 720V1080" fill="#9A563B" opacity=".45"/></g><g transform="translate(110 868)"><rect width="430" height="190" rx="38" fill="#D9E7E5"/><rect x="48" y="34" width="265" height="80" rx="10" fill="#25364C"/><circle cx="92" cy="188" r="38" fill="#090D18"/><circle cx="344" cy="188" r="38" fill="#090D18"/><rect x="330" y="32" width="58" height="75" fill="#E7B45A"/></g><path d="M70 220 L25 470" fill="none" stroke="#D9E7E5" stroke-width="4" stroke-linecap="round" opacity="0.35"/><path d="M147 220 L102 470" fill="none" stroke="#D9E7E5" stroke-width="4" stroke-linecap="round" opacity="0.35"/><path d="M224 220 L179 470" fill="none" stroke="#D9E7E5" stroke-width="4" stroke-linecap="round" opacity="0.35"/><path d="M301 220 L256 470" fill="none" stroke="#D9E7E5" stroke-width="4" stroke-linecap="round" opacity="0.35"/><path d="M378 220 L333 470" fill="none" stroke="#D9E7E5" stroke-width="4" stroke-linecap="round" opacity="0.35"/><path d="M455 220 L410 470" fill="none" stroke="#D9E7E5" stroke-width="4" stroke-linecap="round" opacity="0.35"/><path d="M532 220 L487 470" fill="none" stroke="#D9E7E5" stroke-width="4" stroke-linecap="round" opacity="0.35"/><path d="M609 220 L564 470" fill="none" stroke="#D9E7E5" stroke-width="4" stroke-linecap="round" opacity="0.35"/><path d="M686 220 L641 470" fill="none" stroke="#D9E7E5" stroke-width="4" stroke-linecap="round" opacity="0.35"/><path d="M763 220 L718 470" fill="none" stroke="#D9E7E5" stroke-width="4" stroke-linecap="round" opacity="0.35"/><path d="M840 220 L795 470" fill="none" stroke="#D9E7E5" stroke-width="4" stroke-linecap="round" opacity="0.35"/><path d="M917 220 L872 470" fill="none" stroke="#D9E7E5" stroke-width="4" stroke-linecap="round" opacity="0.35"/><path d="M520 650h250v150H520Z" fill="#E7B45A"/><path d="M645 650v150" stroke="#090D18" stroke-width="7" stroke-dasharray="18 14"/><rect x="42" y="42" width="816" height="1516" rx="28" fill="none" stroke="#D9E7E5" stroke-width="3" opacity=".16"/></svg>
