<?xml version="1.0" encoding="UTF-8"?>
<svg xmlns="http://www.w3.org/2000/svg" viewBox="0 0 900 1600" width="900" height="1600" role="img" aria-label="志怪夜话 · 无影客栈 writing original Phoenix visual"><defs><linearGradient id="sky" x1="0" y1="0" x2="0" y2="1"><stop stop-color="#120F12"/><stop offset=".55" stop-color="#34282A"/><stop offset="1" stop-color="#68504A"/></linearGradient><radialGradient id="focus"><stop stop-color="#D8C3A1" stop-opacity=".5"/><stop offset="1" stop-color="#D8C3A1" stop-opacity="0"/></radialGradient></defs><rect width="900" height="1600" fill="url(#sky)"/><ellipse cx="196" cy="756" rx="390" ry="430" fill="url(#focus)"/><rect y="430" width="900" height="1170" fill="#120F12"/><path d="M70 1440V610h250v830M580 1440V520h250v920" fill="none" stroke="#68504A" stroke-width="28"/><path d="M0 1140L900 960V1600H0Z" fill="#34282A"/><path d="M-80 1600L40 1040" stroke="#A47C58" stroke-width="9" opacity=".38"/><path d="M140 1600L220 1040" stroke="#A47C58" stroke-width="9" opacity=".38"/><path d="M360 1600L400 1040" stroke="#A47C58" stroke-width="9" opacity=".38"/><path d="M580 1600L580 1040" stroke="#A47C58" stroke-width="9" opacity=".38"/><path d="M800 1600L760 1040" stroke="#A47C58" stroke-width="9" opacity=".38"/><g transform="translate(554 956)"><path d="M0 0h190v260H0Z" fill="#A47C58"/><path d="M25 260v180M165 260v180" stroke="#D8C3A1" stroke-width="22"/><path d="M-35 440h260" stroke="#D8C3A1" stroke-width="10" opacity="0"/></g><g transform="translate(520 630)"><rect width="250" height="330" fill="#D8C3A1" opacity=".75"/><path d="M45 70h160M45 125h130M45 180h170M45 235h110" stroke="#34282A" stroke-width="10"/></g><rect x="140" y="330" width="620" height="350" rx="12" fill="#D8C3A1" opacity="0.22"/><path d="M220 420 L680 420" fill="none" stroke="#120F12" stroke-width="8" stroke-linecap="round" opacity="0.7"/><path d="M220 490 L680 490" fill="none" stroke="#120F12" stroke-width="8" stroke-linecap="round" opacity="0.7"/><path d="M220 560 L680 560" fill="none" stroke="#120F12" stroke-width="8" stroke-linecap="round" opacity="0.7"/><rect x="42" y="42" width="816" height="1516" rx="28" fill="none" stroke="#D8C3A1" stroke-width="3" opacity=".16"/></svg>
