<?xml version="1.0" encoding="UTF-8"?>
<svg xmlns="http://www.w3.org/2000/svg" viewBox="0 0 900 1600" width="900" height="1600" role="img" aria-label="词境回声 · 潮声旧信 completion original Phoenix visual"><defs><linearGradient id="sky" x1="0" y1="0" x2="0" y2="1"><stop stop-color="#071B24"/><stop offset=".55" stop-color="#1F5962"/><stop offset="1" stop-color="#77A9A4"/></linearGradient><radialGradient id="focus"><stop stop-color="#F1E5C9" stop-opacity=".5"/><stop offset="1" stop-color="#F1E5C9" stop-opacity="0"/></radialGradient></defs><rect width="900" height="1600" fill="url(#sky)"/><ellipse cx="470" cy="880" rx="390" ry="430" fill="url(#focus)"/><rect y="1040" width="900" height="560" fill="#1F5962"/><path d="M-80 1120 Q150 1050 360 1115 T980 1085" fill="none" stroke="#77A9A4" stroke-width="18" opacity="0.28"/><path d="M-80 1220 Q150 1150 360 1215 T980 1185" fill="none" stroke="#D7C9A4" stroke-width="16" opacity="0.36000000000000004"/><path d="M-80 1320 Q150 1250 360 1315 T980 1285" fill="none" stroke="#77A9A4" stroke-width="14" opacity="0.44000000000000006"/><path d="M-80 1420 Q150 1350 360 1415 T980 1385" fill="none" stroke="#D7C9A4" stroke-width="12" opacity="0.52"/><path d="M-80 1520 Q150 1450 360 1515 T980 1485" fill="none" stroke="#77A9A4" stroke-width="10" opacity="0.6000000000000001"/><path d="M70 1000V580h210v420M95 660h160M145 580v-120h70v120" fill="none" stroke="#F1E5C9" stroke-width="22" opacity=".72"/><g transform="translate(555 830) rotate(2)"><path d="M0 0h250v155H0Z" fill="#F1E5C9"/><path d="M0 0l125 88L250 0" fill="none" stroke="#D7C9A4" stroke-width="10"/></g><g transform="translate(330 430)"><circle r="120" fill="#071B24" stroke="#D7C9A4" stroke-width="18"/><circle r="42" fill="#F1E5C9"/><path d="M-75 0A75 75 0 0 1 75 0" fill="none" stroke="#77A9A4" stroke-width="12"/></g><path d="M180 350h540l-90 210H270Z" fill="#F1E5C9" opacity=".35"/><rect x="42" y="42" width="816" height="1516" rx="28" fill="none" stroke="#F1E5C9" stroke-width="3" opacity=".16"/></svg>
