<svg xmlns="http://www.w3.org/2000/svg" width="900" height="1600" viewBox="0 0 900 1600"><metadata>Asset PHX-ORDINARY-BSP-CORE-001; locally authored deterministic SVG; no external input; 清晨湖面与鸟类救护箱; safe zone upper-right</metadata><defs><linearGradient id="sky" x1="0" y1="0" x2="0" y2="1"><stop stop-color="#dce9df"/><stop offset=".58" stop-color="#779a8c"/><stop offset="1" stop-color="#253c3a"/></linearGradient><radialGradient id="light" cx="47%" cy="27%" r="70%"><stop stop-color="#c89563" stop-opacity=".34"/><stop offset=".48" stop-color="#c89563" stop-opacity=".08"/><stop offset="1" stop-color="#253c3a" stop-opacity="0"/></radialGradient><filter id="grain" x="-10%" y="-10%" width="120%" height="120%"><feTurbulence type="fractalNoise" baseFrequency=".42" numOctaves="2" seed="18"/><feColorMatrix values="1 0 0 0 0 0 1 0 0 0 0 0 1 0 0 0 0 0 .075 0"/></filter></defs><rect width="900" height="1600" fill="url(#sky)"/><rect width="900" height="1600" fill="url(#light)"/><path fill="#779a8c" d="M0 870Q240 740 500 880T900 820v780H0z"/><path fill="#dce9df" d="M0 1010q280-110 520 10t380-10v590H0z"/><path stroke="#253c3a" stroke-width="38" fill="none" d="M-50 1280Q280 1080 950 1190"/><path fill="#c89563" d="M590 1110h190v95H590z"/><path stroke="#253c3a" stroke-width="16" d="M630 1110v-110m110 110V990"/><rect width="900" height="1600" filter="url(#grain)" opacity=".28"/><path fill="#253c3a" opacity=".09" d="M0 0h900v270H0z"/><path fill="#253c3a" opacity=".07" d="M0 1460h900v140H0z"/></svg>